D:\school\WTK\thesis\model\3dpredictsim\Results\debug_batch\Pog_s1_tmt_aCst_d00_k2000_ig24_act_TTC_GRF.mot
nRows=22
nColumns=19

name D:\school\WTK\thesis\model\3dpredictsim\Results\debug_batch\Pog_s1_tmt_aCst_d00_k2000_ig24_act_TTC_GRF.mot
datacolumns 19
datarows 22
range 0.6132915605 0.8708740159
endheader
time 	ground_force_vx	ground_force_vy	ground_force_vz	ground_force_px	ground_force_py	ground_force_pz	1_ground_force_vx	1_ground_force_vy	1_ground_force_vz	1_ground_force_px	1_ground_force_py	1_ground_force_pz	ground_torque_x	ground_torque_y	ground_torque_z	1_ground_torque_x	1_ground_torque_y	1_ground_torque_z
        0.6132915605	      106.8822378682	      415.9386531483	        3.9811666932	        0.4085175840	        0.0000000000	        0.0359249138	      -78.7681311738	       69.6826565350	      -24.9387912423	        0.9596299722	        0.0000000000	       -0.0500000839	        0.0000000000	        0.0000000000	        0.0000000000	        0.0000000000	        0.0000000000	        0.0000000000	
        0.6255573917	       69.8434526045	      312.7586591784	       10.5774754781	        0.4166387467	        0.0000000000	        0.0327692587	      -91.9598902769	      197.9059430986	      -53.0313139364	        0.9660696670	        0.0000000000	       -0.0484166431	        0.0000000000	        0.0000000000	        0.0000000000	        0.0000000000	        0.0000000000	        0.0000000000	
        0.6378232229	       36.9227671756	      205.7519245417	       14.6378325210	        0.4308436813	        0.0000000000	        0.0266847833	      -61.7615454010	      405.0507613717	       -5.6486909783	        0.9694793927	        0.0000000000	       -0.0470079034	        0.0000000000	        0.0000000000	        0.0000000000	        0.0000000000	        0.0000000000	        0.0000000000	
        0.6500890542	       24.5181510447	      162.1029760360	       14.0417908236	        0.4354508803	        0.0000000000	        0.0243860125	      -74.8365019224	      597.7692283265	        9.9731959054	        0.9743532328	        0.0000000000	       -0.0476681661	        0.0000000000	        0.0000000000	        0.0000000000	        0.0000000000	        0.0000000000	        0.0000000000	
        0.6623548854	       20.1774811991	      118.5119286582	       16.0988334278	        0.4359476711	        0.0000000000	        0.0246584282	     -121.4714199919	      786.4741077835	       16.9444482430	        0.9840115878	        0.0000000000	       -0.0500423248	        0.0000000000	        0.0000000000	        0.0000000000	        0.0000000000	        0.0000000000	        0.0000000000	
        0.6746207166	        9.1954159486	       64.4817320274	       14.4794180212	        0.4362251032	        0.0000000000	        0.0249959977	     -142.7290835381	      872.1558125606	       19.1651973824	        0.9907439575	        0.0000000000	       -0.0515670384	        0.0000000000	        0.0000000000	        0.0000000000	        0.0000000000	        0.0000000000	        0.0000000000	
        0.6868865478	       -3.7304643963	        9.6796539368	        2.9019442409	        0.0000000000	        0.0000000000	        0.0000000000	     -141.6164883367	      875.5338402181	       19.3317604209	        0.9952630617	        0.0000000000	       -0.0524582765	        0.0000000000	        0.0000000000	        0.0000000000	        0.0000000000	        0.0000000000	        0.0000000000	
        0.6991523790	        0.0017817386	       -0.0015600842	        0.0000414697	        0.0000000000	        0.0000000000	        0.0000000000	     -127.4064750240	      842.9991829216	       18.9989012046	        0.9988946833	        0.0000000000	       -0.0529904918	        0.0000000000	        0.0000000000	        0.0000000000	        0.0000000000	        0.0000000000	        0.0000000000	
        0.7114182102	        0.0008121040	       -0.0005976884	        0.0000475586	        0.0000000000	        0.0000000000	        0.0000000000	     -111.2660907952	      796.2103758707	       18.1888305740	        1.0026018010	        0.0000000000	       -0.0532532265	        0.0000000000	        0.0000000000	        0.0000000000	        0.0000000000	        0.0000000000	        0.0000000000	
        0.7236840414	        0.0063740500	       -0.0040934079	        0.0004608272	        0.0000000000	        0.0000000000	        0.0000000000	      -97.5536710699	      752.6308435974	       17.4287081965	        1.0065176460	        0.0000000000	       -0.0533055185	        0.0000000000	        0.0000000000	        0.0000000000	        0.0000000000	        0.0000000000	        0.0000000000	
        0.7359498726	       -0.0769876776	        0.0447085618	       -0.0058981471	        0.0000000000	        0.0000000000	        0.0000000000	      -86.1009088995	      719.2343179603	       17.1980703301	        1.0110960492	        0.0000000000	       -0.0531982748	        0.0000000000	        0.0000000000	        0.0000000000	        0.0000000000	        0.0000000000	        0.0000000000	
        0.7482157038	       -0.1659353970	        0.0893132208	       -0.0129600847	        0.0000000000	        0.0000000000	        0.0000000000	      -76.9231389317	      692.1505212232	       17.7888960909	        1.0162330748	        0.0000000000	       -0.0529201660	        0.0000000000	        0.0000000000	        0.0000000000	        0.0000000000	        0.0000000000	        0.0000000000	
        0.7604815350	       -0.0997931845	        0.0508369008	       -0.0075234247	        0.0000000000	        0.0000000000	        0.0000000000	      -67.8166075349	      667.8598517113	       18.1446165084	        1.0212446964	        0.0000000000	       -0.0526470054	        0.0000000000	        0.0000000000	        0.0000000000	        0.0000000000	        0.0000000000	        0.0000000000	
        0.7727473663	       -0.0635701793	        0.0309550037	       -0.0046977274	        0.0000000000	        0.0000000000	        0.0000000000	      -58.8343892607	      645.7198317153	       18.8061245693	        1.0259682912	        0.0000000000	       -0.0524454308	        0.0000000000	        0.0000000000	        0.0000000000	        0.0000000000	        0.0000000000	        0.0000000000	
        0.7850131975	       -0.0500959432	        0.0234705280	       -0.0036368435	        0.0000000000	        0.0000000000	        0.0000000000	      -50.6722072715	      626.5881258037	       19.2125745867	        1.0305741207	        0.0000000000	       -0.0523142979	        0.0000000000	        0.0000000000	        0.0000000000	        0.0000000000	        0.0000000000	        0.0000000000	
        0.7972790287	       -0.0494786410	        0.0224372900	       -0.0035327751	        0.0000000000	        0.0000000000	        0.0000000000	      -43.3773319716	      610.9758281496	       19.4735794375	        1.0351409258	        0.0000000000	       -0.0522196643	        0.0000000000	        0.0000000000	        0.0000000000	        0.0000000000	        0.0000000000	        0.0000000000	
        0.8095448599	       -0.0596181839	        0.0262815079	       -0.0041513304	        0.0000000000	        0.0000000000	        0.0000000000	      -36.9148556849	      598.4964310155	       19.5117563796	        1.0396813111	        0.0000000000	       -0.0521405900	        0.0000000000	        0.0000000000	        0.0000000000	        0.0000000000	        0.0000000000	        0.0000000000	
        0.8218106911	       -0.0856283141	        0.0368016868	       -0.0057830716	        0.0000000000	        0.0000000000	        0.0000000000	      -31.0279015493	      589.4771342151	       19.3125295757	        1.0444221992	        0.0000000000	       -0.0520430311	        0.0000000000	        0.0000000000	        0.0000000000	        0.0000000000	        0.0000000000	        0.0000000000	
        0.8340765223	       -0.1397276883	        0.0586868622	       -0.0090919420	        0.0000000000	        0.0000000000	        0.0000000000	      -26.5622085752	      583.7262509829	       19.2358619493	        1.0495298218	        0.0000000000	       -0.0518801017	        0.0000000000	        0.0000000000	        0.0000000000	        0.0000000000	        0.0000000000	        0.0000000000	
        0.8463423535	       -0.2438841251	        0.1003423730	       -0.0152234902	        0.0000000000	        0.0000000000	        0.0000000000	      -23.0465416728	      580.3726236061	       19.1878797887	        1.0548296969	        0.0000000000	       -0.0516538677	        0.0000000000	        0.0000000000	        0.0000000000	        0.0000000000	        0.0000000000	        0.0000000000	
        0.8586081847	       -0.4271871719	        0.1726330356	       -0.0255433325	        0.0000000000	        0.0000000000	        0.0000000000	      -19.5531768938	      578.7028896206	       19.3097457740	        1.0602805089	        0.0000000000	       -0.0513710258	        0.0000000000	        0.0000000000	        0.0000000000	        0.0000000000	        0.0000000000	        0.0000000000	
        0.8708740159	       -0.7105637779	        0.2828016033	       -0.0406872576	        0.0000000000	        0.0000000000	        0.0000000000	      -16.2719532068	      577.9203148935	       19.4496009699	        1.0658559362	        0.0000000000	       -0.0510394604	        0.0000000000	        0.0000000000	        0.0000000000	        0.0000000000	        0.0000000000	        0.0000000000	
